<svg xmlns="http://www.w3.org/2000/svg" id="Layer_8" enable-background="new 0 0 64 64" viewBox="0 0 64 64"><linearGradient id="SVGID_1_" x1=".001" x2="63.999" y1="40" y2="40" gradientUnits="userSpaceOnUse"><stop offset="0" stop-color="#fbb040"/><stop offset=".006" stop-color="#faac44"/><stop offset=".058" stop-color="#f68d66"/><stop offset=".112" stop-color="#f37581"/><stop offset=".166" stop-color="#f16494"/><stop offset=".222" stop-color="#ef599f"/><stop offset=".281" stop-color="#ef56a3"/><stop offset=".624" stop-color="#f3903f"/><stop offset=".809" stop-color="#ed683c"/><stop offset=".944" stop-color="#ef56a3"/></linearGradient><path fill="url(#SVGID_1_)" d="M3,49.083V62c0,1.103,0.897,2,2,2h2c1.103,0,2-0.897,2-2V50h1.42l-0.396,1.783c-0.074,0.333,0.027,0.682,0.27,0.924c0.096,0.096,1.686,1.623,4.707,1.624V62c0,1.103,0.897,2,2,2h2c1.103,0,2-0.897,2-2v-9.354c3.026-1.278,6.024-0.692,8,0.021V59h-1c-1.103,0-2,0.897-2,2v1c0,1.103,0.897,2,2,2h8c1.103,0,2-0.897,2-2v-1c0-1.103-0.897-2-2-2h-1v-6.333c1.976-0.715,4.973-1.3,8-0.021V62c0,1.103,0.897,2,2,2h2c1.103,0,2-0.897,2-2v-7.662c0.001,0,0.001,0,0.002,0c3.022,0,4.608-1.535,4.705-1.631c0.242-0.242,0.344-0.59,0.27-0.924L53.58,50H55v12c0,1.103,0.897,2,2,2h2c1.103,0,2-0.897,2-2V49.083l2.974-17.77c0.093-0.578-0.073-1.166-0.453-1.611C63.14,29.256,62.585,29,61.999,29h-2.18c-0.949,0-1.774,0.676-1.961,1.607L55.181,44h-1.037c-0.553,0-1,0.448-1,1s0.447,1,1,1H56c0.477,0,0.887-0.336,0.98-0.804L59.819,31L62,30.991l-2.986,17.844C59.005,48.89,59,48.945,59,49v13h-2V49c0-0.552-0.447-1-1-1h-2.864L50.15,34.566C49.945,33.644,49.143,33,48.198,33H45v-2.184c1.161-0.414,2-1.514,2-2.816v-2c0-0.552-0.447-1-1-1h-4c-0.553,0-1,0.448-1,1v2c0,1.302,0.839,2.402,2,2.816V33H33v-3.219l3.242-0.811c0.375-0.094,0.663-0.395,0.738-0.774l0.724-3.62C38.485,23.998,39,22.872,39,21.5c0-1.995-1.075-3.5-2.5-3.5c-0.609,0-1.147,0.287-1.571,0.758C34.636,17.184,33.436,16,32,16s-2.636,1.184-2.929,2.758C28.647,18.287,28.109,18,27.5,18c-1.425,0-2.5,1.505-2.5,3.5c0,1.372,0.515,2.498,1.296,3.076l0.724,3.62c0.075,0.379,0.363,0.68,0.738,0.774L31,29.781V33H21v-2.184c1.161-0.414,2-1.514,2-2.816v-2c0-0.552-0.447-1-1-1h-4c-0.553,0-1,0.448-1,1v2c0,1.302,0.839,2.402,2,2.816V33h-3.198c-0.944,0-1.747,0.644-1.952,1.566l-1.159,5.217c-0.119,0.539,0.221,1.073,0.76,1.193c0.538,0.121,1.074-0.219,1.193-0.759L15.802,35h32.396l3.087,13.891c-0.161,0.068-0.326,0.134-0.5,0.187c-0.528,0.162-0.825,0.721-0.663,1.25c0.132,0.43,0.528,0.707,0.956,0.707c0.097,0,0.195-0.015,0.293-0.044c0.122-0.037,0.233-0.089,0.351-0.132l0.163,0.735c-0.918,0.572-3.356,1.554-7.438-0.487c-4.509-2.253-8.986-0.882-11.255,0.134c-0.758,0.34-1.627,0.34-2.385,0c-2.268-1.016-6.749-2.387-11.255-0.134c-4.086,2.044-6.527,1.056-7.438,0.488l0.164-0.736c0.135,0.049,0.265,0.107,0.405,0.149c0.096,0.028,0.191,0.042,0.286,0.042c0.431,0,0.829-0.281,0.958-0.715c0.158-0.529-0.143-1.086-0.672-1.244c-0.188-0.056-0.367-0.124-0.54-0.197l1.355-6.093c0.119-0.539-0.221-1.073-0.76-1.193c-0.536-0.115-1.073,0.22-1.193,0.759L11.753,44H8.82L6.142,30.607C5.955,29.676,5.13,29,4.181,29h-2.18c-0.586,0-1.141,0.255-1.521,0.701c-0.381,0.445-0.547,1.032-0.454,1.62L3,49.083z M43,27h2v1c0,0.551-0.448,1-1,1s-1-0.449-1-1V27z M36.479,19.997C36.623,20.048,37,20.587,37,21.5c0,0.653-0.192,1.105-0.34,1.334c-0.083,0.015-0.156,0.051-0.232,0.086C36.258,22.747,36,22.265,36,21.5C36,20.587,36.377,20.048,36.479,19.997z M35.624,24.782l-0.48,2.401L33,27.719v-4.934c0.389-0.162,0.741-0.409,1.037-0.732C34.174,23.349,34.777,24.363,35.624,24.782z M32,18c0.532,0,1,0.701,1,1.5S32.532,21,32,21s-1-0.701-1-1.5S31.468,18,32,18z M27.479,19.997C27.623,20.048,28,20.587,28,21.5s-0.377,1.452-0.479,1.503C27.377,22.952,27,22.413,27,21.5S27.377,20.048,27.479,19.997z M28.856,27.184l-0.48-2.402c0.846-0.419,1.45-1.433,1.586-2.728c0.297,0.322,0.648,0.57,1.037,0.732v4.934L28.856,27.184z M19,27h2v1c0,0.551-0.448,1-1,1s-1-0.449-1-1V27z M47,62h-2v-8.468c0.71,0.272,1.376,0.463,2,0.591V62z M36.001,62H28v-1h2h4h2L36.001,62z M33,53.389V59h-2v-5.611C31.66,53.526,32.34,53.526,33,53.389z M17,62v-7.877c0.623-0.128,1.292-0.327,2-0.598V62H17z M4.181,31L7.02,45.196C7.113,45.664,7.523,46,8,46h3.309l-0.444,2H8c-0.553,0-1,0.448-1,1v13H5V49c0-0.055-0.005-0.11-0.014-0.165L2.001,31H4.181z"/><linearGradient id="SVGID_2_" x1="44.155" x2="49.077" y1="49.901" y2="49.901" gradientUnits="userSpaceOnUse"><stop offset="0" stop-color="#fbb040"/><stop offset=".006" stop-color="#faac44"/><stop offset=".058" stop-color="#f68d66"/><stop offset=".112" stop-color="#f37581"/><stop offset=".166" stop-color="#f16494"/><stop offset=".222" stop-color="#ef599f"/><stop offset=".281" stop-color="#ef56a3"/><stop offset=".624" stop-color="#f3903f"/><stop offset=".809" stop-color="#ed683c"/><stop offset=".944" stop-color="#ef56a3"/></linearGradient><path fill="url(#SVGID_2_)" d="M44.783,50.449c1.093,0.438,2.165,0.716,3.186,0.827c0.037,0.004,0.073,0.006,0.109,0.006c0.504,0,0.938-0.379,0.993-0.892c0.06-0.549-0.337-1.042-0.886-1.103c-0.84-0.091-1.734-0.326-2.658-0.695c-0.512-0.205-1.095,0.043-1.301,0.557C44.021,49.662,44.271,50.244,44.783,50.449z"/><linearGradient id="SVGID_3_" x1="32.516" x2="37.379" y1="48.702" y2="48.702" gradientUnits="userSpaceOnUse"><stop offset="0" stop-color="#fbb040"/><stop offset=".006" stop-color="#faac44"/><stop offset=".058" stop-color="#f68d66"/><stop offset=".112" stop-color="#f37581"/><stop offset=".166" stop-color="#f16494"/><stop offset=".222" stop-color="#ef599f"/><stop offset=".281" stop-color="#ef56a3"/><stop offset=".624" stop-color="#f3903f"/><stop offset=".809" stop-color="#ed683c"/><stop offset=".944" stop-color="#ef56a3"/></linearGradient><path fill="url(#SVGID_3_)" d="M33.517,50.189c0.129,0,0.261-0.025,0.387-0.078c0.008-0.003,0.105-0.046,0.113-0.049c0.845-0.378,1.715-0.671,2.586-0.872c0.538-0.124,0.875-0.66,0.751-1.198c-0.124-0.539-0.663-0.874-1.198-0.751c-0.998,0.229-1.993,0.564-3.025,1.025c-0.51,0.214-0.749,0.8-0.535,1.309C32.755,49.958,33.126,50.189,33.517,50.189z"/><linearGradient id="SVGID_4_" x1="20.714" x2="25.7" y1="48.103" y2="48.103" gradientUnits="userSpaceOnUse"><stop offset="0" stop-color="#fbb040"/><stop offset=".006" stop-color="#faac44"/><stop offset=".058" stop-color="#f68d66"/><stop offset=".112" stop-color="#f37581"/><stop offset=".166" stop-color="#f16494"/><stop offset=".222" stop-color="#ef599f"/><stop offset=".281" stop-color="#ef56a3"/><stop offset=".624" stop-color="#f3903f"/><stop offset=".809" stop-color="#ed683c"/><stop offset=".944" stop-color="#ef56a3"/></linearGradient><path fill="url(#SVGID_4_)" d="M21.714,49.322c0.094,0,0.189-0.014,0.284-0.042c0.864-0.256,1.775-0.389,2.71-0.396c0.552-0.004,0.996-0.456,0.992-1.008c-0.004-0.549-0.451-0.992-1-0.992c-0.002,0-0.005,0-0.008,0c-1.121,0.009-2.219,0.169-3.263,0.479c-0.529,0.157-0.831,0.713-0.675,1.243C20.884,49.041,21.282,49.322,21.714,49.322z"/><linearGradient id="SVGID_5_" x1="15.007" x2="19.923" y1="49.881" y2="49.881" gradientUnits="userSpaceOnUse"><stop offset="0" stop-color="#fbb040"/><stop offset=".006" stop-color="#faac44"/><stop offset=".058" stop-color="#f68d66"/><stop offset=".112" stop-color="#f37581"/><stop offset=".166" stop-color="#f16494"/><stop offset=".222" stop-color="#ef599f"/><stop offset=".281" stop-color="#ef56a3"/><stop offset=".624" stop-color="#f3903f"/><stop offset=".809" stop-color="#ed683c"/><stop offset=".944" stop-color="#ef56a3"/></linearGradient><path fill="url(#SVGID_5_)" d="M16.006,51.273c0.039,0,0.079-0.002,0.12-0.007c1.021-0.122,2.088-0.409,3.174-0.851c0.512-0.208,0.758-0.792,0.549-1.304c-0.209-0.512-0.795-0.756-1.303-0.549c-0.921,0.375-1.815,0.617-2.658,0.718c-0.548,0.065-0.939,0.563-0.874,1.111C15.074,50.9,15.507,51.273,16.006,51.273z"/><linearGradient id="SVGID_6_" x1="26.703" x2="31.562" y1="48.727" y2="48.727" gradientUnits="userSpaceOnUse"><stop offset="0" stop-color="#fbb040"/><stop offset=".006" stop-color="#faac44"/><stop offset=".058" stop-color="#f68d66"/><stop offset=".112" stop-color="#f37581"/><stop offset=".166" stop-color="#f16494"/><stop offset=".222" stop-color="#ef599f"/><stop offset=".281" stop-color="#ef56a3"/><stop offset=".624" stop-color="#f3903f"/><stop offset=".809" stop-color="#ed683c"/><stop offset=".944" stop-color="#ef56a3"/></linearGradient><path fill="url(#SVGID_6_)" d="M29.984,50.062l0.209,0.088c0.12,0.048,0.245,0.071,0.368,0.071c0.397,0,0.774-0.239,0.93-0.632c0.203-0.513-0.048-1.095-0.562-1.298l-0.128-0.054c-0.937-0.419-1.902-0.748-2.869-0.976c-0.535-0.129-1.076,0.206-1.203,0.744c-0.126,0.538,0.207,1.076,0.744,1.203C28.318,49.406,29.163,49.694,29.984,50.062z"/><linearGradient id="SVGID_7_" x1="38.384" x2="43.367" y1="48.116" y2="48.116" gradientUnits="userSpaceOnUse"><stop offset="0" stop-color="#fbb040"/><stop offset=".006" stop-color="#faac44"/><stop offset=".058" stop-color="#f68d66"/><stop offset=".112" stop-color="#f37581"/><stop offset=".166" stop-color="#f16494"/><stop offset=".222" stop-color="#ef599f"/><stop offset=".281" stop-color="#ef56a3"/><stop offset=".624" stop-color="#f3903f"/><stop offset=".809" stop-color="#ed683c"/><stop offset=".944" stop-color="#ef56a3"/></linearGradient><path fill="url(#SVGID_7_)" d="M42.075,49.303c0.097,0.03,0.195,0.044,0.292,0.044c0.429,0,0.824-0.277,0.956-0.708c0.162-0.528-0.136-1.087-0.664-1.249c-1.041-0.318-2.139-0.488-3.261-0.505c-0.563,0.002-1.007,0.433-1.015,0.985s0.433,1.006,0.985,1.015C40.303,48.899,41.213,49.04,42.075,49.303z"/><linearGradient id="SVGID_8_" x1="11.409" x2="20.348" y1="13.158" y2="13.158" gradientUnits="userSpaceOnUse"><stop offset="0" stop-color="#fbb040"/><stop offset=".006" stop-color="#faac44"/><stop offset=".058" stop-color="#f68d66"/><stop offset=".112" stop-color="#f37581"/><stop offset=".166" stop-color="#f16494"/><stop offset=".222" stop-color="#ef599f"/><stop offset=".281" stop-color="#ef56a3"/><stop offset=".624" stop-color="#f3903f"/><stop offset=".809" stop-color="#ed683c"/><stop offset=".944" stop-color="#ef56a3"/></linearGradient><path fill="url(#SVGID_8_)" d="M17.162,10.511c-0.687-1.108-1.55-1.677-2.528-1.691c-0.75,0.008-1.475,0.336-2.04,0.924c-0.788,0.819-1.219,2.053-1.183,3.385c0.047,1.687,0.914,3.249,2.162,3.901c0.539,0.312,1.188,0.466,1.871,0.466c0.86,0,1.773-0.245,2.582-0.726c1.146-0.682,1.957-1.706,2.228-2.81c0.194-0.792,0.085-1.58-0.31-2.218C19.439,10.925,18.457,10.512,17.162,10.511z M18.312,13.485c-0.14,0.569-0.641,1.169-1.309,1.567c-0.922,0.549-1.944,0.535-2.437,0.243c-0.019-0.011-0.038-0.021-0.058-0.031c-0.51-0.26-1.068-1.115-1.098-2.189c-0.021-0.777,0.217-1.521,0.623-1.943c0.196-0.204,0.405-0.309,0.623-0.311c0,0,0.001,0,0.002,0c0.228,0,0.665,0.407,1.031,1.164c0.185,0.384,0.583,0.61,1.016,0.559c0.839-0.096,1.417,0.058,1.537,0.251C18.356,12.977,18.379,13.209,18.312,13.485z"/><linearGradient id="SVGID_9_" x1="9.005" x2="15.92" y1="3.292" y2="3.292" gradientUnits="userSpaceOnUse"><stop offset="0" stop-color="#fbb040"/><stop offset=".006" stop-color="#faac44"/><stop offset=".058" stop-color="#f68d66"/><stop offset=".112" stop-color="#f37581"/><stop offset=".166" stop-color="#f16494"/><stop offset=".222" stop-color="#ef599f"/><stop offset=".281" stop-color="#ef56a3"/><stop offset=".624" stop-color="#f3903f"/><stop offset=".809" stop-color="#ed683c"/><stop offset=".944" stop-color="#ef56a3"/></linearGradient><path fill="url(#SVGID_9_)" d="M10.565,5.91c0.628,0.411,1.369,0.624,2.075,0.624c0.464,0,0.913-0.092,1.303-0.28c1.002-0.438,1.78-1.553,1.942-2.787c0.129-0.979-0.109-1.917-0.653-2.572c-0.421-0.508-0.998-0.806-1.624-0.84c-0.72-0.04-1.431,0.331-2.024,1.058c-0.957-0.028-1.68,0.269-2.121,0.845C9.08,2.455,8.93,3.088,9.04,3.738C9.183,4.578,9.738,5.369,10.565,5.91z M11.036,3.189c0.043-0.033,0.194-0.078,0.448-0.078c0.119,0,0.262,0.01,0.425,0.036c0.407,0.062,0.794-0.121,1.006-0.461c0.3-0.485,0.551-0.624,0.583-0.634c0.027,0.001,0.101,0.005,0.195,0.12c0.145,0.174,0.275,0.537,0.21,1.034c-0.078,0.592-0.451,1.083-0.767,1.217c-0.019,0.008-0.037,0.016-0.055,0.025c-0.307,0.152-0.923,0.115-1.423-0.212c-0.42-0.274-0.609-0.61-0.647-0.833C10.987,3.256,11.032,3.198,11.036,3.189z"/><linearGradient id="SVGID_10_" x1="43.35" x2="52.288" y1="13.158" y2="13.158" gradientUnits="userSpaceOnUse"><stop offset="0" stop-color="#fbb040"/><stop offset=".006" stop-color="#faac44"/><stop offset=".058" stop-color="#f68d66"/><stop offset=".112" stop-color="#f37581"/><stop offset=".166" stop-color="#f16494"/><stop offset=".222" stop-color="#ef599f"/><stop offset=".281" stop-color="#ef56a3"/><stop offset=".624" stop-color="#f3903f"/><stop offset=".809" stop-color="#ed683c"/><stop offset=".944" stop-color="#ef56a3"/></linearGradient><path fill="url(#SVGID_10_)" d="M49.038,8.82c-0.951,0-1.823,0.594-2.503,1.691c-1.31,0.005-2.277,0.414-2.781,1.231c-0.395,0.638-0.505,1.425-0.311,2.218c0.27,1.104,1.082,2.128,2.228,2.81c0.809,0.481,1.722,0.726,2.582,0.726c0.683,0,1.332-0.154,1.871-0.466c1.248-0.651,2.115-2.214,2.162-3.901c0.036-1.333-0.395-2.567-1.183-3.386c-0.565-0.588-1.289-0.916-2.037-0.924C49.057,8.82,49.047,8.82,49.038,8.82z M50.286,13.075c-0.029,1.074-0.587,1.929-1.098,2.188c-0.02,0.01-0.038,0.021-0.058,0.032c-0.493,0.292-1.515,0.306-2.437-0.243c-0.668-0.397-1.169-0.998-1.309-1.567c-0.067-0.275-0.044-0.507,0.07-0.692c0.094-0.153,0.473-0.28,1.038-0.28c0.152,0,0.319,0.009,0.497,0.03c0.43,0.051,0.831-0.175,1.016-0.559c0.37-0.765,0.798-1.164,1.033-1.164c0.001,0,0.002,0,0.003,0c0.215,0.002,0.424,0.107,0.62,0.311C50.069,11.553,50.308,12.297,50.286,13.075z"/><linearGradient id="SVGID_11_" x1="47.778" x2="54.693" y1="3.293" y2="3.293" gradientUnits="userSpaceOnUse"><stop offset="0" stop-color="#fbb040"/><stop offset=".006" stop-color="#faac44"/><stop offset=".058" stop-color="#f68d66"/><stop offset=".112" stop-color="#f37581"/><stop offset=".166" stop-color="#f16494"/><stop offset=".222" stop-color="#ef599f"/><stop offset=".281" stop-color="#ef56a3"/><stop offset=".624" stop-color="#f3903f"/><stop offset=".809" stop-color="#ed683c"/><stop offset=".944" stop-color="#ef56a3"/></linearGradient><path fill="url(#SVGID_11_)" d="M50.091,0.055c-0.628,0.034-1.206,0.333-1.627,0.841c-0.544,0.655-0.781,1.593-0.651,2.571c0.162,1.233,0.94,2.349,1.941,2.787c0.39,0.188,0.839,0.28,1.303,0.28c0.706,0,1.447-0.213,2.075-0.624c0.827-0.541,1.383-1.332,1.525-2.172c0.11-0.65-0.04-1.283-0.422-1.78c-0.442-0.577-1.17-0.864-2.122-0.846C51.52,0.387,50.833,0.018,50.091,0.055z M52.648,3.176c0.017,0.022,0.062,0.081,0.037,0.228c-0.038,0.223-0.228,0.558-0.647,0.833c-0.501,0.327-1.116,0.365-1.423,0.212c-0.018-0.009-0.036-0.017-0.055-0.025c-0.315-0.133-0.688-0.625-0.766-1.218c-0.065-0.497,0.064-0.859,0.209-1.033c0.095-0.115,0.169-0.119,0.177-0.122c0.079,0.017,0.329,0.194,0.602,0.635c0.212,0.342,0.604,0.525,1.006,0.461C52.296,3.066,52.598,3.141,52.648,3.176z"/></svg>